<svg width="96.902" height="52.001" viewBox="0 0 96.902 52.001" xmlns="http://www.w3.org/2000/svg"><g id="svgGroup" stroke-linecap="round" fill-rule="evenodd" font-size="9pt" stroke="#000" stroke-width="0.25mm" fill="black" style="stroke:#000;stroke-width:0.25mm;fill:black"><path d="M 21.601 20.901 L 35.001 20.901 L 35.001 20.301 Q 35.001 15.721 33.313 12.705 A 10.002 10.002 0 0 0 31.601 10.451 A 11.392 11.392 0 0 0 25.604 7.381 A 16.421 16.421 0 0 0 22.501 7.101 A 16.421 16.421 0 0 0 18.104 7.666 A 13.355 13.355 0 0 0 14.051 9.551 A 10.419 10.419 0 0 0 9.907 15.423 A 14.072 14.072 0 0 0 9.601 16.701 L 1.001 16.701 Q 1.501 11.301 4.651 7.601 Q 7.801 3.901 12.501 1.951 Q 17.201 0.001 22.501 0.001 Q 32.901 0.001 38.151 5.551 A 18.74 18.74 0 0 1 42.888 14.907 A 27.019 27.019 0 0 1 43.401 20.301 L 43.401 50.801 L 35.901 50.801 L 35.401 41.901 A 19.521 19.521 0 0 1 29.75 48.677 A 22.905 22.905 0 0 1 29.251 49.051 A 14.338 14.338 0 0 1 24.556 51.252 Q 22.595 51.79 20.273 51.942 A 28.776 28.776 0 0 1 18.401 52.001 A 30.285 30.285 0 0 1 14.046 51.705 Q 11.721 51.367 9.783 50.641 A 15.997 15.997 0 0 1 8.101 49.901 A 16.18 16.18 0 0 1 4.622 47.538 A 13.065 13.065 0 0 1 2.001 44.301 Q 0.001 40.801 0.001 36.701 Q 0.001 29.101 5.801 25.001 Q 11.601 20.901 21.601 20.901 Z M 64.401 50.801 L 56.001 50.801 L 56.001 1.201 L 63.601 1.201 L 64.301 10.701 Q 66.601 5.801 71.301 2.901 A 18.761 18.761 0 0 1 77.285 0.556 Q 79.882 0.001 82.901 0.001 L 82.901 8.801 L 80.601 8.801 A 21.824 21.824 0 0 0 75.128 9.468 A 19.221 19.221 0 0 0 72.501 10.351 A 12.157 12.157 0 0 0 66.954 15.036 A 15.079 15.079 0 0 0 66.601 15.601 Q 64.98 18.327 64.553 22.573 A 32.342 32.342 0 0 0 64.401 25.801 L 64.401 50.801 Z M 35.001 27.501 L 35.001 27.401 L 22.301 27.401 Q 16.163 27.401 13.018 29.155 A 7.536 7.536 0 0 0 11.851 29.951 A 8.77 8.77 0 0 0 9.766 32.421 A 7.87 7.87 0 0 0 8.801 36.301 A 8.619 8.619 0 0 0 9.308 39.316 A 7.551 7.551 0 0 0 11.651 42.551 A 9.43 9.43 0 0 0 14.901 44.257 Q 16.265 44.679 17.906 44.825 A 20.375 20.375 0 0 0 19.701 44.901 A 15.404 15.404 0 0 0 24.018 44.319 A 12.684 12.684 0 0 0 27.951 42.401 Q 31.401 39.901 33.201 35.901 Q 35.001 31.901 35.001 27.501 Z M 89.077 50.95 A 6.217 6.217 0 0 0 91.201 51.301 A 6.932 6.932 0 0 0 91.276 51.3 A 5.496 5.496 0 0 0 95.251 49.651 A 5.587 5.587 0 0 0 96.415 47.986 A 5.75 5.75 0 0 0 96.901 45.601 A 6.932 6.932 0 0 0 96.901 45.526 A 5.496 5.496 0 0 0 95.251 41.551 A 5.587 5.587 0 0 0 93.586 40.387 A 5.75 5.75 0 0 0 91.201 39.901 A 7.342 7.342 0 0 0 90.892 39.907 A 5.566 5.566 0 0 0 87.051 41.551 A 5.587 5.587 0 0 0 85.888 43.216 A 5.75 5.75 0 0 0 85.401 45.601 A 6.932 6.932 0 0 0 85.401 45.676 A 5.496 5.496 0 0 0 87.051 49.651 A 5.461 5.461 0 0 0 89.077 50.95 Z" vector-effect="non-scaling-stroke"/></g></svg>