<?xml version="1.0" standalone="no"?>
<!DOCTYPE svg PUBLIC "-//W3C//DTD SVG 20010904//EN"
 "http://www.w3.org/TR/2001/REC-SVG-20010904/DTD/svg10.dtd">
<svg version="1.0" xmlns="http://www.w3.org/2000/svg"
 width="97.000000pt" height="52.000000pt" viewBox="0 0 97.000000 52.000000"
 preserveAspectRatio="xMidYMid meet">

<g transform="translate(0.000000,52.000000) scale(0.100000,-0.100000)"
fill="#000000" stroke="none">
<path d="M130 509 c-63 -26 -120 -91 -120 -139 0 -17 6 -20 44 -20 36 0 46 4
51 20 3 10 20 31 36 45 25 20 41 25 86 25 47 0 59 -4 84 -29 16 -16 29 -36 29
-44 0 -9 3 -22 6 -31 5 -13 -3 -16 -52 -16 -206 -1 -294 -51 -294 -167 0 -96
66 -153 178 -153 72 0 122 19 152 58 l20 25 0 -37 0 -36 45 0 45 0 0 168 c0
227 -19 284 -104 323 -45 21 -163 25 -206 8z m211 -302 c-19 -81 -70 -127
-142 -127 -62 0 -83 10 -99 49 -9 24 -9 35 2 57 20 42 52 54 154 54 l92 0 -7
-33z"/>
<path d="M722 499 c-23 -12 -47 -30 -53 -42 -9 -16 -13 -17 -20 -6 -5 8 -9 24
-9 37 0 19 -5 22 -40 22 l-40 0 0 -250 0 -250 45 0 45 0 0 149 c0 205 17 241
122 263 l58 12 0 43 c0 42 -1 43 -32 43 -18 0 -52 -10 -76 -21z"/>
<path d="M877 109 c-32 -25 -35 -61 -7 -89 39 -39 100 -12 100 44 0 55 -50 79
-93 45z"/>
</g>
</svg>
